
Click To Enlarge 



-: Cover :-
 
http://desibbrg.org/images/40940279367095168065.jpg



-: Screens :-


    	http://desibbrg.org/images/13675941463948611242.jpg
    	http://desibbrg.org/images/78438172278872372484.jpg
    	http://desibbrg.org/images/52819367802059680592.jpg
    	http://desibbrg.org/images/93530758262516270193.jpg
    	http://desibbrg.org/images/41434180435457580251.jpg
    	http://desibbrg.org/images/40815721248881109261.jpg
    	http://desibbrg.org/images/52444483725373096541.jpg
    	http://desibbrg.org/images/03411192259244425753.jpg
    	http://desibbrg.org/images/20299405033019100001.jpg
    	http://desibbrg.org/images/13371297041384053574.jpg
    	http://desibbrg.org/images/73582614495719404100.jpg
    	http://desibbrg.org/images/87027291457553672271.jpg
    	http://desibbrg.org/images/07923646425325936650.jpg
    	http://desibbrg.org/images/16239857791066538404.jpg
    	http://desibbrg.org/images/83785281003725797935.jpg
    	http://desibbrg.org/images/55853856729812673626.jpg
    	http://desibbrg.org/images/42201997824452298504.jpg
    	http://desibbrg.org/images/49190078842985531936.jpg
    	http://desibbrg.org/images/72131193882452380361.jpg


-: Info :-

Source - DvD 9 DADA RRG

General

Format                         : Matroska
Format version                 : Version 2
File size                      : 1.58 GiB
Duration                       : 2h 49mn
Overall bit rate               : 1 329 Kbps
Encoded date                   : UTC 2013-04-24 22:43:02
Writing application            : mkvmerge v6.1.0 ('Old Devil') built on Mar  2 2013 14:32:37
Writing library                : libebml v1.3.0 + libmatroska v1.4.0

Video
ID                             : 1
Format                         : AVC
Format/Info                    : Advanced Video Codec
Format profile                 : High@L3.0
Format settings, CABAC         : Yes
Format settings, ReFrames      : 4 frames
Codec ID                       : V_MPEG4/ISO/AVC
Duration                       : 2h 49mn
Bit rate                       : 1 199 Kbps
Width                          : 704 pixels
Height                         : 320 pixels
Display aspect ratio           : 2.2:1
Frame rate mode                : Constant
Frame rate                     : 29.970 fps
Color space                    : YUV
Chroma subsampling             : 4:2:0
Bit depth                      : 8 bits
Scan type                      : Progressive
Bits/(Pixel*Frame)             : 0.178
Stream size                    : 1.39 GiB (88%)
Writing library                : x264 core 130 r2273 b3065e6
Default                        : Yes
Forced                         : No

Audio
ID                             : 2
Format                         : AC-3
Format/Info                    : Audio Coding 3
Mode extension                 : CM (complete main)
Format settings, Endianness    : Big
Codec ID                       : A_AC3
Duration                       : 2h 49mn
Bit rate mode                  : Constant
Bit rate                       : 128 Kbps
Channel(s)                     : 6 channels
Channel positions              : Front: L C R, Side: L R, LFE
Sampling rate                  : 48.0 KHz
Bit depth                      : 16 bits
Compression mode               : Lossy
Stream size                    : 156 MiB (10%)
Default                        : Yes
Forced                         : No

Ripper - DADA - RRG


 
http://www.imdb.com/title/tt0084866/


Directed by
Subhash Ghai	 	
 
Cast (in alphabetical order) verified as complete
	Tom Alter	... 	David
	Harbans Darshan M. Arora	... 	Man at the funeral of Abu Baba (as Harbans Darshan)
	Birbal	... 	Bheema
	Krishan Dhawan	... 	Ganpat

	Sanjay Dutt	... 	Kunal Singh
	Jagdeep	... 	Peter John DeCosta

	Shammi Kapoor	... 	Gurbaksh
	Viju Khote	... 	Kolhapuri husband in song 'Saat Saheliyan'
	Padmini Kolhapure	... 	Durga

	Dilip Kumar	... 	Shamsher Singh / Sobhraj
	Sanjeev Kumar	... 	Abu Baba
	Shreeram Lagoo	... 	Sir Mizia
	Madhu Malhotra	... 	Lily
	Manmauji	... 	Villager
	Mukri	... 	Dance Organiser
	Suresh Oberoi	... 	Inspector Pratap Singh
	Paintal	... 	Muthuswamy
	H.L. Pardesi	... 	Villager

	Amrish Puri	... 	Jagawar Chaudhary
	Madan Puri	... 	Khushdil Khushal Singh aka K.K.
	Sarika	... 	Neelima
	Gautam Sarin	... 	Ponchi
	Sudha Shivpuri	... 	Durga's mom


Produced by
Gulshan Rai	.... 	producer
 
Original Music by
Anandji Veerji Shah	 	(as Anandji)
Kalyanji Veerji Shah	 	(as Kalyanji)
 
Sound Department
Akki Hemchandra	.... 	sound
 
Music Department
Asha Bhosle	.... 	playback singer
Kishore Kumar	.... 	playback singer: Saat Saheliyan
Lata Mangeshkar	.... 	playback singer
Sadhana Sargam	.... 	playback singer: Saat Saheliyan
Suresh Wadkar	.... 	playback singer
Alka Yagnik	.... 	playback singer: Saat Saheliyan 


Shamsher Singh (Dilip Kumar) is a very wealthy, poweful, and influential man. His son Pratap Singh (Suresh Oberoi) was tragically killed at a young age, leaving behind a son, Kunal Singh (Sanjay Dutt), who now lives with his grandfather. Also living with Shamsher are a faithful old employee Abu Baba (Sanjeev Kumar), and his brother Gurbaksh Singh. Kunal grows up without any hang-ups, and is attracted to a local young lady, Durga (Padmini Kolhapure), who lives with her mother (Nadira), and are not wealthy. When Kunal takes Durga to introduce her to his granddad, and Abu Baba, Shamsher instantly takes a dislike to Durga, due to her poverty, and asks Durga's mother, not to permit Durga to see nor contact Kunal again. Durga and her mother decide to move out, but are molested. Abu Baba comes to their rescue, and as a result he is killed. Kunal is enraged, and swears to avenge Abu Baba's death. His investigation to the man behind Abu Baba's death leads him to the associates of his 
